RobotoExtremo-opsz36-wght600-wdth25.ufo
<glyph name="ampersand" format="2">
  <advance width="1148"/>
  <unicode hex="0026"/>
  <outline>
    <contour>
      <point x="51.12615384615384" y="372.7230769230769" type="qcurve" smooth="yes"/>
      <point x="51.12615384615384" y="534.2723076923077"/>
      <point x="218.77015384615387" y="742.1276923076921"/>
      <point x="345.32830769230765" y="841.2953846153848" type="qcurve" smooth="yes"/>
      <point x="473.6076923076924" y="938.1799999999998" type="line" smooth="yes"/>
      <point x="545.0153846153846" y="995.1323076923076"/>
      <point x="591.7233230769231" y="1107.553846153846"/>
      <point x="591.7233230769231" y="1168.7323076923074" type="qcurve" smooth="yes"/>
      <point x="591.7233230769231" y="1241.1646153846154"/>
      <point x="557.5494769230768" y="1305.470769230769"/>
      <point x="516.357169230769" y="1305.470769230769" type="qcurve" smooth="yes"/>
      <point x="477.14947692307703" y="1305.470769230769"/>
      <point x="439.0987076923076" y="1236.147692307692"/>
      <point x="439.0987076923076" y="1163.4215384615388" type="qcurve" smooth="yes"/>
      <point x="439.0987076923076" y="1091.2507692307695"/>
      <point x="507.86996923076936" y="950.4523076923076"/>
      <point x="584.4849230769232" y="835.1015384615384" type="qcurve" smooth="yes"/>
      <point x="1132.388676923077" y="0.0" type="line"/>
      <point x="811.0479384615386" y="0.0" type="line"/>
      <point x="335.2233846153847" y="727.44" type="line" smooth="yes"/>
      <point x="245.76129230769234" y="859.4292307692307"/>
      <point x="159.46658461538465" y="1049.3538461538458"/>
      <point x="159.46658461538465" y="1156.110769230769" type="qcurve" smooth="yes"/>
      <point x="159.46658461538465" y="1312.5907692307687"/>
      <point x="344.74049230769236" y="1484.0707692307692"/>
      <point x="519.7417846153845" y="1484.0707692307692" type="qcurve" smooth="yes"/>
      <point x="692.6646153846153" y="1484.0707692307692"/>
      <point x="863.6416000000003" y="1322.9815384615385"/>
      <point x="863.6416000000003" y="1171.5876923076926" type="qcurve" smooth="yes"/>
      <point x="863.6416000000003" y="1043.8907692307691"/>
      <point x="742.3120615384616" y="864.2861538461539"/>
      <point x="639.8738461538461" y="784.6184615384617" type="qcurve" smooth="yes"/>
      <point x="525.4713846153846" y="694.9384615384619" type="line" smooth="yes"/>
      <point x="409.1200322700306" y="608.0337495844398"/>
      <point x="332.8617846153846" y="484.49692307692294"/>
      <point x="332.8617846153846" y="391.7446153846154" type="qcurve" smooth="yes"/>
      <point x="332.8617846153846" y="294.4938461538463"/>
      <point x="414.8040615384615" y="190.96615384615387"/>
      <point x="487.30886153846143" y="190.96615384615387" type="qcurve" smooth="yes"/>
      <point x="603.9112615384616" y="190.96615384615387"/>
      <point x="808.3264000000001" y="447.88307692307694"/>
      <point x="819.6864" y="709.1323076923076" type="qcurve"/>
      <point x="1090.8569846153844" y="709.1323076923076" type="line"/>
      <point x="1091.7708307692303" y="407.44923076923084"/>
      <point x="730.1289846153846" y="-18.984615384615385"/>
      <point x="483.2750153846154" y="-18.984615384615385" type="qcurve" smooth="yes"/>
      <point x="268.36701538461546" y="-18.984615384615385"/>
      <point x="51.12615384615384" y="200.29538461538465"/>
    </contour>
  </outline>
</glyph>
<glyph name="parenright" format="2">
  <advance width="669"/>
  <unicode hex="0029"/>
  <outline>
    <contour>
      <point x="93.84769230769234" y="-431.9384615384615" type="qcurve"/>
      <point x="88.46615384615387" y="-236.89538461538464" type="line"/>
      <point x="184.46492307692307" y="-172.52615384615385"/>
      <point x="273.55384615384617" y="141.72923076923078"/>
      <point x="273.55384615384617" y="500.99384615384616" type="qcurve" smooth="yes"/>
      <point x="273.55384615384617" y="537.6861538461538" type="line" smooth="yes"/>
      <point x="273.55384615384617" y="899.0"/>
      <point x="182.94184615384614" y="1219.4307692307693"/>
      <point x="88.6692307692308" y="1280.6523076923074" type="qcurve"/>
      <point x="93.84769230769234" y="1476.0" type="line"/>
      <point x="307.58369230769233" y="1395.8461538461536"/>
      <point x="583.2187692307691" y="944.0953846153847"/>
      <point x="583.2187692307691" y="535.0953846153844" type="qcurve" smooth="yes"/>
      <point x="583.2187692307691" y="505.8615384615385" type="line" smooth="yes"/>
      <point x="583.2187692307691" y="90.0276923076923"/>
      <point x="307.78676923076927" y="-350.87076923076927"/>
    </contour>
  </outline>
</glyph>
<glyph name="eight" format="2">
  <advance width="922"/>
  <unicode hex="0038"/>
  <outline>
    <contour>
      <point x="56.58871794871793" y="396.90358974358975" type="qcurve" smooth="yes"/>
      <point x="56.58871794871793" y="540.2841025641026"/>
      <point x="157.42242263483644" y="711.0908222811671"/>
      <point x="232.84159151193631" y="747.3233598585323" type="qcurve"/>
      <point x="232.84159151193631" y="751.018744473917" type="line"/>
      <point x="162.30401414677274" y="796.5569230769229"/>
      <point x="88.12753315649867" y="957.5866666666665"/>
      <point x="88.12753315649867" y="1082.9999999999998" type="qcurve" smooth="yes"/>
      <point x="88.12753315649867" y="1270.6287179487178"/>
      <point x="285.0884173297967" y="1480.3189743589744"/>
      <point x="459.86489832007084" y="1480.3189743589744" type="qcurve" smooth="yes"/>
      <point x="634.4044562334218" y="1480.3189743589744"/>
      <point x="832.870450928382" y="1271.0528381962863"/>
      <point x="832.870450928382" y="1082.9999999999998" type="qcurve" smooth="yes"/>
      <point x="832.870450928382" y="958.2523076923078"/>
      <point x="756.3006542882405" y="792.2174358974357"/>
      <point x="688.4033244916003" y="750.6577188328912" type="qcurve"/>
      <point x="688.4033244916003" y="747.6290008841733" type="line"/>
      <point x="764.7589036251105" y="710.119540229885"/>
      <point x="864.3403006189213" y="542.2892307692308"/>
      <point x="864.3403006189213" y="396.90358974358975" type="qcurve" smooth="yes"/>
      <point x="864.3403006189213" y="194.67487179487185"/>
      <point x="643.6473209549071" y="-24.420512820512823"/>
      <point x="459.86489832007084" y="-24.420512820512823" type="qcurve" smooth="yes"/>
      <point x="275.94709106984965" y="-24.420512820512823"/>
      <point x="56.58871794871793" y="195.588717948718"/>
    </contour>
    <contour>
      <point x="364.21358090185686" y="423.5548717948719" type="qcurve" smooth="yes"/>
      <point x="364.21358090185686" y="305.1292307692307"/>
      <point x="407.28502210433254" y="197.91692307692304"/>
      <point x="458.9725906277631" y="197.91692307692304" type="qcurve" smooth="yes"/>
      <point x="509.760424403183" y="197.91692307692304"/>
      <point x="554.1903094606542" y="305.5917948717949"/>
      <point x="554.1903094606542" y="422.8317948717949" type="qcurve" smooth="yes"/>
      <point x="554.1903094606542" y="542.6317948717948"/>
      <point x="512.4024756852344" y="651.9302564102564"/>
      <point x="458.9048983200708" y="651.9302564102564" type="qcurve" smooth="yes"/>
      <point x="405.07271441202477" y="651.9302564102564"/>
      <point x="364.21358090185686" y="543.342564102564"/>
    </contour>
    <contour>
      <point x="380.74496905393465" y="1045.9538461538461" type="qcurve" smooth="yes"/>
      <point x="380.74496905393465" y="937.2260805860806"/>
      <point x="413.53609195402294" y="837.988717948718"/>
      <point x="458.9725906277631" y="837.988717948718" type="qcurve" smooth="yes"/>
      <point x="503.4416622458001" y="837.988717948718"/>
      <point x="539.0448099027409" y="937.6164102564104"/>
      <point x="539.0448099027409" y="1045.9538461538461" type="qcurve" smooth="yes"/>
      <point x="539.0448099027409" y="1156.346666666667"/>
      <point x="502.39243147656924" y="1255.41641025641"/>
      <point x="458.9725906277631" y="1255.41641025641" type="qcurve" smooth="yes"/>
      <point x="415.25198938992037" y="1255.41641025641"/>
      <point x="380.74496905393465" y="1156.411868621902"/>
    </contour>
  </outline>
</glyph>
<glyph name="A" format="2">
  <advance width="1075"/>
  <unicode hex="0041"/>
  <anchor x="613.5852307692307" y="1432.0" name="top"/>
  <outline>
    <contour>
      <point x="-7.292307692307696" y="0.0" type="line"/>
      <point x="361.03384615384624" y="1461.1446153846155" type="line"/>
      <point x="719.888923076923" y="1461.1446153846155" type="line"/>
      <point x="1082.0750769230772" y="0.0" type="line"/>
      <point x="770.685846153846" y="0.0" type="line"/>
      <point x="558.4435692307695" y="939.0307692307694" type="line" smooth="yes"/>
      <point x="550.9374153846155" y="976.4892307692306"/>
      <point x="537.738953846154" y="1058.3138461538465"/>
      <point x="534.1481846153847" y="1081.56" type="qcurve"/>
      <point x="529.5420307692307" y="1081.56" type="line"/>
      <point x="526.0189538461539" y="1058.3138461538465"/>
      <point x="512.0820307692308" y="976.8369230769225"/>
      <point x="504.37279999999987" y="939.3107692307693" type="qcurve" smooth="yes"/>
      <point x="298.8945846153846" y="0.0" type="line"/>
    </contour>
    <contour>
      <point x="253.27999999999997" y="305.36923076923074" type="line"/>
      <point x="286.57538461538456" y="529.0892307692308" type="line"/>
      <point x="784.2496615384616" y="529.0892307692308" type="line"/>
      <point x="817.3694769230767" y="305.36923076923074" type="line"/>
    </contour>
  </outline>
</glyph>
<glyph name="B" format="2">
  <advance width="1077"/>
  <unicode hex="0042"/>
  <outline>
    <contour>
      <point x="110.17846153846152" y="0.0" type="line"/>
      <point x="110.17846153846152" y="1456.0" type="line"/>
      <point x="589.9106461538461" y="1456.0" type="line" smooth="yes"/>
      <point x="780.5485340286832" y="1456.0"/>
      <point x="973.990030769231" y="1265.1753846153847"/>
      <point x="974.0577230769233" y="1078.5261538461539" type="qcurve" smooth="yes"/>
      <point x="974.1254153846156" y="947.6492307692307"/>
      <point x="879.0377235987617" y="795.9907694163119"/>
      <point x="802.5654153846153" y="767.9907692307693" type="qcurve"/>
      <point x="802.5654153846153" y="764.396923076923" type="line"/>
      <point x="896.3476869248159" y="738.989772754739"/>
      <point x="1019.5284923076925" y="572.5446153846154"/>
      <point x="1019.5284923076925" y="416.7938461538462" type="qcurve" smooth="yes"/>
      <point x="1019.5284923076925" y="215.21230769230775"/>
      <point x="798.0167666666667" y="0.0"/>
      <point x="607.1537230769229" y="0.0" type="qcurve" smooth="yes"/>
    </contour>
    <contour>
      <point x="417.17526153846154" y="223.89538461538464" type="line"/>
      <point x="552.3568000000001" y="223.89538461538464" type="line" smooth="yes"/>
      <point x="628.856322546419" y="223.89538461538464"/>
      <point x="700.7475692307693" y="334.51692307692304"/>
      <point x="700.7475692307693" y="439.82769230769225" type="qcurve" smooth="yes"/>
      <point x="700.7475692307693" y="542.9446153846154"/>
      <point x="627.8070917771882" y="650.3753846153845"/>
      <point x="552.5598769230769" y="650.3753846153845" type="qcurve" smooth="yes"/>
      <point x="417.17526153846154" y="650.3753846153845" type="line"/>
    </contour>
    <contour>
      <point x="417.17526153846154" y="838.4953846153846" type="line"/>
      <point x="533.6983384615385" y="838.4953846153846" type="line" smooth="yes"/>
      <point x="606.9964072013092" y="838.4953846153846"/>
      <point x="672.6675692307692" y="933.1476923076926"/>
      <point x="672.5660307692308" y="1032.756923076923" type="qcurve" smooth="yes"/>
      <point x="672.4644923076922" y="1133.2461538461534"/>
      <point x="607.7071764320783" y="1224.3538461538462"/>
      <point x="535.2214153846154" y="1224.3538461538462" type="qcurve" smooth="yes"/>
      <point x="417.17526153846154" y="1224.3538461538462" type="line"/>
    </contour>
  </outline>
</glyph>
<glyph name="L" format="2">
  <advance width="896"/>
  <unicode hex="004C"/>
  <outline>
    <contour>
      <point x="110.17846153846152" y="0.0" type="line"/>
      <point x="110.17846153846152" y="1456.0" type="line"/>
      <point x="426.7188923076923" y="1456.0" type="line"/>
      <point x="426.7188923076923" y="257.7723076923077" type="line"/>
      <point x="875.8327384615386" y="257.7723076923077" type="line"/>
      <point x="875.8327384615386" y="0.0" type="line"/>
    </contour>
  </outline>
</glyph>
<glyph name="X" format="2">
  <advance width="1019"/>
  <unicode hex="0058"/>
  <outline>
    <contour>
      <point x="0.5384615384615411" y="0.0" type="line"/>
      <point x="398.3353846153847" y="861.803076923077" type="line"/>
      <point x="452.6261538461537" y="861.803076923077" type="line"/>
      <point x="708.0092307692306" y="1456.0" type="line"/>
      <point x="1000.1907692307691" y="1456.0" type="line"/>
      <point x="623.1876923076925" y="624.8153846153845" type="line"/>
      <point x="570.4646153846153" y="624.8153846153845" type="line"/>
      <point x="294.68307692307695" y="0.0" type="line"/>
    </contour>
    <contour>
      <point x="20.406153846153845" y="1456.0" type="line"/>
      <point x="354.8707692307692" y="1456.0" type="line"/>
      <point x="613.6600000000001" y="859.4000000000001" type="line"/>
      <point x="621.963076923077" y="859.5353846153846" type="line"/>
      <point x="1011.0061538461542" y="-0.0676923076923077" type="line"/>
      <point x="675.4046153846153" y="-0.0676923076923077" type="line"/>
      <point x="396.76307692307694" y="638.5107692307693" type="line"/>
      <point x="388.7476923076924" y="638.6123076923077" type="line"/>
    </contour>
  </outline>
</glyph>
<glyph name="Z" format="2">
  <advance width="968"/>
  <unicode hex="005A"/>
  <outline>
    <contour>
      <point x="24.0676923076923" y="0.0" type="line"/>
      <point x="24.0676923076923" y="191.03384615384616" type="line"/>
      <point x="527.2332307692308" y="1198.4307692307698" type="line"/>
      <point x="39.31692307692308" y="1198.4307692307698" type="line"/>
      <point x="39.31692307692308" y="1456.0" type="line"/>
      <point x="912.8145230769231" y="1456.0" type="line"/>
      <point x="912.8145230769231" y="1258.0123076923078" type="line"/>
      <point x="411.4336" y="250.6153846153846" type="line"/>
      <point x="944.2483692307693" y="250.6153846153846" type="line"/>
      <point x="944.2483692307693" y="0.0" type="line"/>
    </contour>
  </outline>
</glyph>
<glyph name="d" format="2">
  <advance width="1002"/>
  <unicode hex="0064"/>
  <outline>
    <contour>
      <point x="53.54153846153847" y="452.0239384615385" type="qcurve" smooth="yes"/>
      <point x="53.54153846153847" y="543.1531692307692" type="line" smooth="yes"/>
      <point x="53.54153846153847" y="749.9568777327935"/>
      <point x="229.9436923076923" y="1010.6909538461538"/>
      <point x="378.00953846153857" y="1010.6909538461538" type="qcurve" smooth="yes"/>
      <point x="462.14221538461555" y="1010.6909538461538"/>
      <point x="577.3696615384615" y="948.1709538461537"/>
      <point x="609.2886153846154" y="898.2294153846153" type="qcurve"/>
      <point x="609.2886153846154" y="1500.6215384615382" type="line"/>
      <point x="911.2219076923076" y="1500.6215384615382" type="line"/>
      <point x="911.2219076923076" y="0.0" type="line"/>
      <point x="618.1316923076921" y="0.0" type="line"/>
      <point x="614.6086153846151" y="107.67384615384616" type="line"/>
      <point x="612.7116923076924" y="107.67384615384616" type="line"/>
      <point x="581.5945230769229" y="54.4"/>
      <point x="459.59452307692305" y="-18.443076923076923"/>
      <point x="377.84030769230765" y="-18.443076923076923" type="qcurve" smooth="yes"/>
      <point x="227.62984615384613" y="-18.443076923076923"/>
      <point x="53.54153846153847" y="245.38574165457186"/>
    </contour>
    <contour>
      <point x="359.78707692307677" y="449.9070153846155" type="line" smooth="yes"/>
      <point x="359.78707692307677" y="342.32242604802616"/>
      <point x="422.0763076923077" y="201.07384615384612"/>
      <point x="486.8624615384615" y="201.07384615384612" type="qcurve" smooth="yes"/>
      <point x="531.0655384615386" y="201.07384615384612"/>
      <point x="591.5316923076924" y="261.7030769230769"/>
      <point x="605.4947692307692" y="302.35692307692307" type="qcurve"/>
      <point x="605.4947692307692" y="687.758646153846" type="line"/>
      <point x="591.5316923076923" y="729.2924923076923"/>
      <point x="530.3547692307692" y="790.4294153846153"/>
      <point x="486.5578461538461" y="790.4294153846153" type="qcurve" smooth="yes"/>
      <point x="421.53476923076914" y="790.4294153846153"/>
      <point x="359.78707692307677" y="648.7889988165681"/>
      <point x="359.78707692307677" y="539.7839384615385" type="qcurve" smooth="yes"/>
    </contour>
  </outline>
</glyph>
<glyph name="e" format="2">
  <advance width="939"/>
  <unicode hex="0065"/>
  <anchor x="544.029753846154" y="991.9404615384618" name="top"/>
  <outline>
    <contour>
      <point x="53.593846153846165" y="454.1056410256411" type="qcurve" smooth="yes"/>
      <point x="53.593846153846165" y="543.2379487179486" type="line" smooth="yes"/>
      <point x="53.593846153846165" y="759.1928205128204"/>
      <point x="291.1005128205129" y="1020.9979487179486"/>
      <point x="487.8164102564103" y="1020.9979487179486" type="qcurve" smooth="yes"/>
      <point x="685.2492307692307" y="1020.9979487179486"/>
      <point x="896.5128205128203" y="767.7917623854275"/>
      <point x="896.5128205128203" y="551.9805128205129" type="qcurve" smooth="yes"/>
      <point x="896.5128205128203" y="440.8389743589743" type="line"/>
      <point x="226.56" y="440.8389743589743" type="line"/>
      <point x="226.56" y="599.9712820512821" type="line"/>
      <point x="599.3661538461537" y="599.9712820512821" type="line"/>
      <point x="598.8123076923076" y="609.3015384615386" type="line"/>
      <point x="599.3661538461537" y="700.7342961800103"/>
      <point x="550.8687179487179" y="800.7784615384614"/>
      <point x="483.80205128205137" y="800.7784615384614" type="qcurve" smooth="yes"/>
      <point x="424.8020512820513" y="800.7784615384614"/>
      <point x="358.7569230769231" y="660.7863790530457"/>
      <point x="358.7569230769231" y="549.156923076923" type="qcurve" smooth="yes"/>
      <point x="358.7569230769231" y="449.0492307692307" type="line" smooth="yes"/>
      <point x="358.7569230769231" y="335.7357085020243"/>
      <point x="430.53333333333336" y="194.43179487179486"/>
      <point x="502.89230769230767" y="194.43179487179486" type="qcurve" smooth="yes"/>
      <point x="552.9473846153846" y="194.43179487179486"/>
      <point x="618.2153846153846" y="258.49230769230775"/>
      <point x="638.7641025641025" y="311.56205128205136" type="qcurve"/>
      <point x="891.5671794871794" y="237.11282051282052" type="line"/>
      <point x="853.7784615384617" y="118.27487179487181"/>
      <point x="663.483076923077" y="-26.64717948717949"/>
      <point x="503.8871794871794" y="-26.64717948717949" type="qcurve" smooth="yes"/>
      <point x="289.03282051282054" y="-26.64717948717949"/>
      <point x="53.593846153846165" y="234.21025641025642"/>
    </contour>
  </outline>
</glyph>
<glyph name="t" format="2">
  <advance width="606"/>
  <unicode hex="0074"/>
  <outline>
    <contour>
      <point x="0.22153846153846157" y="767.9094153846152" type="line"/>
      <point x="0.22153846153846157" y="991.401723076923" type="line"/>
      <point x="569.4440615384615" y="991.401723076923" type="line"/>
      <point x="569.4440615384615" y="767.9094153846152" type="line"/>
    </contour>
    <contour>
      <point x="115.46769230769232" y="270.85538461538465" type="qcurve" smooth="yes"/>
      <point x="115.46769230769232" y="925.2863384615383" type="line"/>
      <point x="122.42153846153846" y="946.7509538461538" type="line"/>
      <point x="122.42153846153846" y="1239.292307692308" type="line"/>
      <point x="416.7271384615384" y="1239.292307692308" type="line"/>
      <point x="416.7271384615384" y="332.4738461538461" type="line" smooth="yes"/>
      <point x="416.7271384615384" y="258.40000000000003"/>
      <point x="452.73564048583006" y="204.35384615384612"/>
      <point x="492.8548307692308" y="204.35384615384612" type="qcurve" smooth="yes"/>
      <point x="515.1687149097818" y="204.35384615384612"/>
      <point x="553.148676923077" y="213.99846153846156"/>
      <point x="571.5825230769232" y="221.2184615384615" type="qcurve"/>
      <point x="571.7856" y="5.6461538461538465" type="line"/>
      <point x="546.2856" y="-5.25230769230769"/>
      <point x="449.35329230769236" y="-23.916923076923077"/>
      <point x="379.4809846153847" y="-23.916923076923077" type="qcurve" smooth="yes"/>
      <point x="253.5299076923076" y="-23.916923076923077"/>
      <point x="115.46769230769232" y="121.23076923076923"/>
    </contour>
  </outline>
</glyph>
<glyph name="y" format="2">
  <advance width="873"/>
  <unicode hex="0079"/>
  <anchor x="499.9713846153847" y="991.401723076923" name="top"/>
  <outline>
    <contour>
      <point x="-3.7360000000000024" y="-409.22153846153844" type="qcurve"/>
      <point x="16.187076923076933" y="-195.80000000000007" type="line"/>
      <point x="42.45987692307693" y="-203.18923076923073"/>
      <point x="103.70904615384613" y="-212.82153846153844"/>
      <point x="134.85723076923074" y="-212.82153846153844" type="qcurve" smooth="yes"/>
      <point x="198.8222153846154" y="-212.82153846153844"/>
      <point x="263.66153846153844" y="-155.88615384615386"/>
      <point x="307.38461538461524" y="8.32923076923077" type="qcurve" smooth="yes"/>
      <point x="302.8492307692308" y="8.563076923076922" type="line"/>
      <point x="8.35384615384615" y="991.401723076923" type="line"/>
      <point x="299.44123076923074" y="991.401723076923" type="line"/>
      <point x="428.1434461538462" y="465.3366153846153" type="line" smooth="yes"/>
      <point x="435.47732307692297" y="436.10612307692315"/>
      <point x="446.2757538461538" y="378.37353846153854"/>
      <point x="450.1495999999999" y="348.8320000000001" type="qcurve"/>
      <point x="452.6388307692307" y="348.8320000000001" type="line"/>
      <point x="456.72498461538464" y="378.3058461538461"/>
      <point x="466.9324" y="435.93689230769235"/>
      <point x="474.06036923076925" y="465.4473846153846" type="qcurve" smooth="yes"/>
      <point x="606.3979076923079" y="991.401723076923" type="line"/>
      <point x="875.6849230769229" y="991.401723076923" type="line"/>
      <point x="596.434153846154" y="3.8923076923076856" type="line" smooth="yes"/>
      <point x="513.0903384615383" y="-263.27230769230766"/>
      <point x="328.6673846153847" y="-434.4769230769231"/>
      <point x="188.33969230769225" y="-434.4769230769231" type="qcurve" smooth="yes"/>
      <point x="118.48898461538462" y="-434.4769230769231"/>
      <point x="27.089599999999997" y="-420.24923076923073"/>
    </contour>
  </outline>
</glyph>
<glyph name="dieresis" format="2">
  <advance width="971"/>
  <unicode hex="00A8"/>
  <anchor x="423.0" y="1577.0" name="mkmktop_acc"/>
  <outline>
    <contour>
      <point x="178.36923076923074" y="1282.5692307692307" type="qcurve" smooth="yes"/>
      <point x="178.36923076923074" y="1325.9446153846154"/>
      <point x="232.03384615384613" y="1385.406153846154"/>
      <point x="282.9015384615385" y="1385.406153846154" type="qcurve" smooth="yes"/>
      <point x="334.7692307692308" y="1385.406153846154"/>
      <point x="388.43384615384616" y="1325.9446153846154"/>
      <point x="388.43384615384616" y="1282.5692307692307" type="qcurve" smooth="yes"/>
      <point x="388.43384615384616" y="1241.2953846153844"/>
      <point x="334.7692307692308" y="1182.7323076923076"/>
      <point x="282.9015384615385" y="1182.7323076923076" type="qcurve" smooth="yes"/>
      <point x="232.03384615384613" y="1182.7323076923076"/>
      <point x="178.36923076923074" y="1241.2953846153844"/>
    </contour>
    <contour>
      <point x="582.36" y="1280.5692307692307" type="qcurve" smooth="yes"/>
      <point x="582.36" y="1323.9446153846154"/>
      <point x="635.1261538461539" y="1383.406153846154"/>
      <point x="686.8923076923077" y="1383.406153846154" type="qcurve" smooth="yes"/>
      <point x="737.8615384615383" y="1383.406153846154"/>
      <point x="792.4246153846153" y="1323.9446153846154"/>
      <point x="792.4246153846153" y="1280.5692307692307" type="qcurve" smooth="yes"/>
      <point x="792.4246153846153" y="1239.2953846153844"/>
      <point x="737.8615384615383" y="1180.7323076923076"/>
      <point x="686.8923076923077" y="1180.7323076923076" type="qcurve" smooth="yes"/>
      <point x="635.1261538461539" y="1180.7323076923076"/>
      <point x="582.36" y="1239.2953846153844"/>
    </contour>
  </outline>
</glyph>
<glyph name="periodcentered" format="2">
  <advance width="590"/>
  <unicode hex="00B7"/>
  <outline>
    <contour>
      <point x="174.8830769230769" y="749.0" type="qcurve" smooth="yes"/>
      <point x="174.8830769230769" y="796.4769230769231"/>
      <point x="236.8523076923077" y="864.3446153846154"/>
      <point x="294.9230769230769" y="864.3446153846154" type="qcurve" smooth="yes"/>
      <point x="352.99384615384616" y="864.3446153846154"/>
      <point x="414.9630769230769" y="796.4769230769231"/>
      <point x="414.9630769230769" y="749.0" type="qcurve" smooth="yes"/>
      <point x="414.9630769230769" y="701.5230769230769"/>
      <point x="352.99384615384616" y="633.6553846153846"/>
      <point x="294.9230769230769" y="633.6553846153846" type="qcurve" smooth="yes"/>
      <point x="236.8523076923077" y="633.6553846153846"/>
      <point x="174.8830769230769" y="701.5230769230769"/>
    </contour>
  </outline>
</glyph>
<glyph name="primemod" format="2">
  <advance width="570"/>
  <unicode hex="02B9"/>
  <outline>
    <contour>
      <point x="213.84615384615384" y="1499.9692307692308" type="line"/>
      <point x="395.73846153846154" y="1499.9692307692308" type="line"/>
      <point x="278.7692307692308" y="991.0" type="line"/>
      <point x="161.84615384615384" y="996.0" type="line"/>
    </contour>
  </outline>
</glyph>
<glyph name="ogonek" format="2">
  <advance width="956"/>
  <unicode hex="02DB"/>
  <outline>
    <contour>
      <point x="495.6338461538462" y="54.05538461538462" type="qcurve"/>
      <point x="567.1969230769232" y="-0.4061538461538462" type="line"/>
      <point x="506.64923076923077" y="-47.28923076923077"/>
      <point x="407.2646153846154" y="-150.70461538461538"/>
      <point x="407.2646153846154" y="-211.03384615384616" type="qcurve" smooth="yes"/>
      <point x="407.2646153846154" y="-242.71384615384616"/>
      <point x="440.7415384615384" y="-281.3938461538461"/>
      <point x="482.5230769230769" y="-281.3938461538461" type="qcurve" smooth="yes"/>
      <point x="515.0153846153844" y="-281.3938461538461"/>
      <point x="566.2030769230768" y="-262.69846153846163"/>
      <point x="581.1015384615382" y="-254.39384615384623" type="qcurve"/>
      <point x="595.6092307692305" y="-370.6061538461538" type="line"/>
      <point x="571.5230769230769" y="-385.6061538461538"/>
      <point x="495.64" y="-415.0123076923076"/>
      <point x="438.36615384615385" y="-415.0123076923076" type="qcurve" smooth="yes"/>
      <point x="360.3107692307693" y="-415.0123076923076"/>
      <point x="253.98153846153846" y="-321.2769230769231"/>
      <point x="253.98153846153846" y="-232.33846153846153" type="qcurve" smooth="yes"/>
      <point x="253.98153846153846" y="-157.00923076923078"/>
      <point x="367.5538461538462" y="-7.827692307692304"/>
    </contour>
  </outline>
</glyph>
<glyph name="tilde" format="2">
  <advance width="971"/>
  <unicode hex="02DC"/>
  <anchor x="475.0" y="1598.0" name="mkmktop_acc"/>
  <outline>
    <contour>
      <point x="147.2676923076923" y="1272.0369230769231" type="line"/>
      <point x="178.9476923076923" y="1331.8892307692308"/>
      <point x="309.2307692307693" y="1424.7107692307693"/>
      <point x="371.9661538461537" y="1424.7107692307693" type="qcurve" smooth="yes"/>
      <point x="411.44307692307694" y="1424.7107692307693"/>
      <point x="483.39692307692303" y="1400.32"/>
      <point x="518.3661538461539" y="1377.5384615384617" type="qcurve" smooth="yes"/>
      <point x="550.5384615384615" y="1356.553846153846"/>
      <point x="623.6646153846156" y="1315.6000000000001"/>
      <point x="659.6338461538462" y="1315.6000000000001" type="qcurve" smooth="yes"/>
      <point x="697.5015384615383" y="1315.6000000000001"/>
      <point x="763.5415384615385" y="1364.9446153846154"/>
      <point x="785.8307692307692" y="1399.4215384615384" type="qcurve"/>
      <point x="863.0738461538463" y="1305.6861538461537" type="line"/>
      <point x="826.5969230769233" y="1238.1384615384618"/>
      <point x="701.516923076923" y="1169.6923076923076"/>
      <point x="647.2584615384615" y="1169.6923076923076" type="qcurve" smooth="yes"/>
      <point x="600.5938461538461" y="1169.6923076923076"/>
      <point x="511.2646153846155" y="1209.9507692307693"/>
      <point x="481.5846153846154" y="1226.443076923077" type="qcurve" smooth="yes"/>
      <point x="449.41230769230776" y="1244.6307692307694"/>
      <point x="385.06769230769225" y="1277.006153846154"/>
      <point x="357.6923076923077" y="1277.006153846154" type="qcurve" smooth="yes"/>
      <point x="313.2307692307693" y="1277.006153846154"/>
      <point x="237.7138461538461" y="1209.8799999999999"/>
      <point x="220.3230769230769" y="1183.8953846153845" type="qcurve"/>
    </contour>
  </outline>
</glyph>
<glyph name="quoteright" format="2">
  <advance width="395"/>
  <unicode hex="2019"/>
  <outline>
    <contour>
      <point x="306.11999999999995" y="1457.796923076923" type="line"/>
      <point x="306.11999999999995" y="1334.670769230769" type="line" smooth="yes"/>
      <point x="306.11999999999995" y="1247.6153846153845"/>
      <point x="218.87692307692308" y="1050.52"/>
      <point x="140.32923076923078" y="984.8553846153847" type="qcurve"/>
      <point x="38.796923076923065" y="1055.4184615384615" type="line"/>
      <point x="83.86769230769231" y="1119.083076923077"/>
      <point x="129.93846153846152" y="1253.5138461538459"/>
      <point x="129.93846153846152" y="1331.7723076923075" type="qcurve" smooth="yes"/>
      <point x="129.93846153846152" y="1457.796923076923" type="line"/>
    </contour>
  </outline>
</glyph>
<glyph name="fraction" format="2">
  <advance width="343"/>
  <unicode hex="2044"/>
  <guideline x="0" y="901.0" angle="0" identifier="tcCoNUQTdD"/>
  <guideline x="0" y="555.0" angle="0" identifier="0lx51aIE0d"/>
  <outline>
    <contour>
      <point x="615.3446153846154" y="1381.9630769230769" type="line"/>
      <point x="-73.80923076923075" y="-30.618461538461535" type="line"/>
      <point x="-265.27384615384614" y="75.74153846153844" type="line"/>
      <point x="417.1046153846154" y="1480.6153846153843" type="line"/>
    </contour>
  </outline>
</glyph>
<glyph name="breveinvertedcomb.case" format="2">
  <advance width="971"/>
  <outline>
    <contour>
      <point x="209.81538461538457" y="1599.2923076923078" type="qcurve"/>
      <point x="120.36923076923077" y="1664.926153846154" type="line"/>
      <point x="157.64307692307693" y="1760.5753846153846"/>
      <point x="348.99692307692305" y="1922.0923076923082"/>
      <point x="486.09230769230766" y="1922.0923076923082" type="qcurve" smooth="yes"/>
      <point x="608.0" y="1922.0923076923082"/>
      <point x="805.1507692307692" y="1774.169230769231"/>
      <point x="850.9169230769229" y="1663.926153846154" type="qcurve"/>
      <point x="754.6738461538463" y="1599.2923076923078" type="line"/>
      <point x="713.8061538461537" y="1659.8553846153848"/>
      <point x="576.2184615384615" y="1759.9969230769234"/>
      <point x="485.99076923076916" y="1759.9969230769234" type="qcurve" smooth="yes"/>
      <point x="389.16923076923075" y="1759.9969230769234"/>
      <point x="250.6830769230769" y="1664.5507692307692"/>
    </contour>
  </outline>
</glyph>
<glyph name="circumflexcombstack.case" format="2">
  <advance width="971"/>
  <outline>
    <contour>
      <point x="543.96" y="1852.6615384615384" type="line"/>
      <point x="796.5723076923076" y="1575.7599999999998" type="line"/>
      <point x="640.9692307692308" y="1573.9630769230769" type="line"/>
      <point x="479.00615384615384" y="1705.9569230769232" type="line"/>
      <point x="322.53538461538454" y="1575.7599999999998" type="line"/>
      <point x="161.64307692307693" y="1575.7599999999998" type="line"/>
      <point x="406.8646153846154" y="1852.6615384615384" type="line"/>
    </contour>
  </outline>
</glyph>
<glyph name="dieresiscombstack.case" format="2">
  <advance width="971"/>
  <outline>
    <contour>
      <point x="154.52615384615385" y="1710.1446153846155" type="qcurve" smooth="yes"/>
      <point x="154.52615384615385" y="1762.8092307692307"/>
      <point x="212.2923076923077" y="1820.1846153846154"/>
      <point x="266.26153846153846" y="1820.1846153846154" type="qcurve" smooth="yes"/>
      <point x="317.6369230769231" y="1820.1846153846154"/>
      <point x="378.09846153846155" y="1759.2153846153844"/>
      <point x="378.09846153846155" y="1710.1446153846155" type="qcurve" smooth="yes"/>
      <point x="378.09846153846155" y="1658.5815384615385"/>
      <point x="321.2307692307692" y="1601.3076923076924"/>
      <point x="266.26153846153846" y="1601.3076923076924" type="qcurve" smooth="yes"/>
      <point x="214.98769230769233" y="1601.3076923076924"/>
      <point x="154.52615384615385" y="1661.2769230769231"/>
    </contour>
    <contour>
      <point x="592.6953846153846" y="1709.9415384615384" type="qcurve" smooth="yes"/>
      <point x="592.6953846153846" y="1762.6061538461538"/>
      <point x="650.36" y="1819.9815384615385"/>
      <point x="704.4307692307692" y="1819.9815384615385" type="qcurve" smooth="yes"/>
      <point x="755.8061538461538" y="1819.9815384615385"/>
      <point x="816.2676923076923" y="1759.0123076923078"/>
      <point x="816.2676923076923" y="1709.9415384615384" type="qcurve" smooth="yes"/>
      <point x="816.2676923076923" y="1658.3784615384614"/>
      <point x="759.4" y="1601.1046153846153"/>
      <point x="704.4307692307692" y="1601.1046153846153" type="qcurve" smooth="yes"/>
      <point x="653.0553846153846" y="1601.1046153846153"/>
      <point x="592.6953846153846" y="1661.0738461538463"/>
    </contour>
  </outline>
</glyph>
